<?xml version="1.0" encoding="UTF-8"?>
<svg version="1.1" xmlns="http://www.w3.org/2000/svg" width="315" height="210">
<path d="M0 0 C6.48025809 4.70248818 11.14853664 9.48250569 14 17 C14 17.99 14 18.98 14 20 C17.96 20 21.92 20 26 20 C26.495 20.99 26.495 20.99 27 22 C27.60328125 21.51015625 28.2065625 21.0203125 28.828125 20.515625 C33.45117118 18.30658323 37.69733726 18.64090067 42.75 18.75 C44.20599609 18.75773437 44.20599609 18.75773437 45.69140625 18.765625 C52.84567274 18.84567274 52.84567274 18.84567274 54 20 C54.15806531 21.92478813 54.251135 23.8549921 54.31640625 25.78515625 C54.35830078 26.95498047 54.40019531 28.12480469 54.44335938 29.33007812 C54.48267578 30.56177734 54.52199219 31.79347656 54.5625 33.0625 C54.60568359 34.29806641 54.64886719 35.53363281 54.69335938 36.80664062 C54.79984198 39.87097335 54.90185424 42.93539073 55 46 C55.66 45.01 56.32 44.02 57 43 C57.886875 43.309375 58.77375 43.61875 59.6875 43.9375 C62.46709155 44.8290671 65.13136375 45.49377007 68 46 C68 45.01 68 44.02 68 43 C66.96939453 42.52820313 66.96939453 42.52820313 65.91796875 42.046875 C64.56638672 41.40492187 64.56638672 41.40492187 63.1875 40.75 C62.29417969 40.33234375 61.40085937 39.9146875 60.48046875 39.484375 C57.82823503 37.89721152 56.54341276 36.66088369 55 34 C54.47965258 29.31687324 54.29718521 27.1546243 56.75 23.125 C61.17041448 18.9501641 64.44100963 18.74690069 70.5 18.8125 C72.46453125 18.82216797 72.46453125 18.82216797 74.46875 18.83203125 C77.27331932 18.96543444 79.33468642 19.32834098 82 20 C84.24907152 20.06790675 86.50001605 20.08499984 88.75 20.0625 C89.92046875 20.05347656 91.0909375 20.04445313 92.296875 20.03515625 C93.18890625 20.02355469 94.0809375 20.01195313 95 20 C95 20.66 95 21.32 95 22 C95.70125 21.51273438 96.4025 21.02546875 97.125 20.5234375 C100.37322816 18.80222965 102.35156196 18.59707828 106 18.625 C107.010625 18.61726563 108.02125 18.60953125 109.0625 18.6015625 C112.36244598 19.04916156 114.28725269 20.11503955 117 22 C117 21.34 117 20.68 117 20 C121.95 20 126.9 20 132 20 C133.33858524 22.28874173 134.67101014 24.58069656 136 26.875 C136.3815625 27.52597656 136.763125 28.17695312 137.15625 28.84765625 C140 33.7734375 140 33.7734375 140 36 C140.66 36 141.32 36 142 36 C142.17015625 35.43152344 142.3403125 34.86304688 142.515625 34.27734375 C144.15067737 29.0677886 146.13309172 24.64636859 149 20 C153.95 20 158.9 20 164 20 C158.09559547 31.88302643 152.07183339 43.70177163 146 55.5 C145.12101238 57.20959358 144.24210572 58.91922879 143.36328125 60.62890625 C141.24311622 64.75308245 139.12187145 68.8767015 137 73 C132.05 73 127.1 73 122 73 C124.23873122 66.28380634 124.23873122 66.28380634 125.98046875 63.08984375 C126.33947266 62.40986328 126.69847656 61.72988281 127.06835938 61.02929688 C127.81869652 59.62683426 128.57661453 58.22840296 129.34179688 56.83398438 C131.46517108 52.81326972 131.46517108 52.81326972 131.9296875 48.3671875 C130.80225986 45.49651039 129.45748874 42.87173544 127.9375 40.1875 C127.38964844 39.21167969 126.84179688 38.23585937 126.27734375 37.23046875 C125.85582031 36.49441406 125.43429688 35.75835937 125 35 C124.87044922 36.06927734 124.87044922 36.06927734 124.73828125 37.16015625 C123.5885396 44.99738601 121.84510783 50.09272335 115.4375 54.9375 C108.83086114 56.97955201 102.19965695 57.09982848 96 54 C95.67 60.27 95.34 66.54 95 73 C90.71 73 86.42 73 82 73 C81.505 62.605 81.505 62.605 81 52 C79.02 53.32 77.04 54.64 75 56 C71.30859375 56.4609375 71.30859375 56.4609375 67.4375 56.375 C66.15746094 56.36210938 64.87742187 56.34921875 63.55859375 56.3359375 C60.26899678 56.02539377 57.9563663 55.41860187 55 54 C54.67 54.33 54.34 54.66 54 55 C49.66469082 55.14393457 45.33842269 55.04212061 41 55 C40.67 47.41 40.34 39.82 40 32 C36.41996227 30.80665409 33.75684104 30.66456776 30 31 C27.26098493 33.79570622 26.61184393 35.91046936 26.48828125 39.765625 C26.43510742 41.09980469 26.43510742 41.09980469 26.38085938 42.4609375 C26.35830078 43.38132813 26.33574219 44.30171875 26.3125 45.25 C26.27833984 46.18585938 26.24417969 47.12171875 26.20898438 48.0859375 C26.12668898 50.39020846 26.06166287 52.69508463 26 55 C22.04 55 18.08 55 14 55 C14.66 56.32 15.32 57.64 16 59 C16 62.69544396 15.03071542 63.96362648 12.625 66.8125 C8.94256599 69.58309321 5.49530197 69.62854492 1 69.4453125 C-3.2702823 68.81144247 -7.09779949 67.31769759 -11.1328125 65.82421875 C-14.71203526 64.79531411 -17.44207441 64.95493834 -21.0625 65.640625 C-23 66 -23 66 -27 66 C-27.66 64.35 -28.32 62.7 -29 61 C-27.02 59.35 -25.04 57.7 -23 56 C-23.65226562 55.6596875 -24.30453125 55.319375 -24.9765625 54.96875 C-32.92274548 50.56201726 -38.63161034 45.19920328 -41.52734375 36.390625 C-43.65459238 25.63131786 -41.97869346 16.48379675 -36.3125 7.25 C-26.39898008 -2.39558695 -12.79424233 -6.76083708 0 0 Z M-25.375 16.9375 C-28.20139931 22.53092048 -28.0457806 29.28094273 -26.375 35.22265625 C-24.757787 38.62313537 -22.64293482 40.52026272 -19.3125 42.0625 C-14.60822738 43.46676048 -10.45536568 43.0367386 -6 41 C-2.40059645 37.99052245 -0.27302843 34.51991811 0.23828125 29.80078125 C0.41964101 23.72045652 -0.19353613 18.91422735 -4 14 C-11.42733941 8.71833642 -19.70217837 9.92111535 -25.375 16.9375 Z M81 24 C80.34 25.98 79.68 27.96 79 30 C78.29875 29.67 77.5975 29.34 76.875 29 C73.73996884 27.90955438 71.29436818 27.84677357 68 28 C68 28.99 68 29.98 68 31 C68.84304687 31.42152344 69.68609375 31.84304687 70.5546875 32.27734375 C76.27734375 35.13867188 76.27734375 35.13867188 82 38 C82 33.38 82 28.76 82 24 C81.67 24 81.34 24 81 24 Z M96.5625 31.5625 C94.39603972 34.94217804 94.43711998 37.05983987 95 41 C96.41666667 43.58333333 96.41666667 43.58333333 99 45 C102.94016013 45.56288002 105.05782196 45.60396028 108.4375 43.4375 C110.60396028 40.05782196 110.56288002 37.94016013 110 34 C108.58333333 31.41666667 108.58333333 31.41666667 106 30 C102.05983987 29.43711998 99.94217804 29.39603972 96.5625 31.5625 Z M12 39 C11.24443496 40.21311837 10.52132119 41.44648943 9.8125 42.6875 C7.32739591 46.75272808 4.81040001 49.16246807 1 52 C-0.175625 52.8971875 -0.175625 52.8971875 -1.375 53.8125 C-1.91125 54.204375 -2.4475 54.59625 -3 55 C3.37259801 56.19937786 7.23826317 56.06475363 13 53 C13 48.38 13 43.76 13 39 C12.67 39 12.34 39 12 39 Z " fill="#0D0D0D" transform="translate(90,71)"/>
<path d="M0 0 C4.95 0 9.9 0 15 0 C16.33858524 2.28874173 17.67101014 4.58069656 19 6.875 C19.3815625 7.52597656 19.763125 8.17695312 20.15625 8.84765625 C23 13.7734375 23 13.7734375 23 16 C23.66 16 24.32 16 25 16 C25.17015625 15.43152344 25.3403125 14.86304687 25.515625 14.27734375 C27.15067737 9.0677886 29.13309172 4.64636859 32 0 C36.95 0 41.9 0 47 0 C41.09559547 11.88302643 35.07183339 23.70177163 29 35.5 C28.12101238 37.20959358 27.24210572 38.91922879 26.36328125 40.62890625 C24.24311622 44.75308245 22.12187145 48.8767015 20 53 C15.05 53 10.1 53 5 53 C7.23873122 46.28380634 7.23873122 46.28380634 8.98046875 43.08984375 C9.33947266 42.40986328 9.69847656 41.72988281 10.06835938 41.02929688 C10.81869652 39.62683426 11.57661453 38.22840296 12.34179688 36.83398438 C14.46517108 32.81326972 14.46517108 32.81326972 14.9296875 28.3671875 C13.80225986 25.49651039 12.45748874 22.87173544 10.9375 20.1875 C10.11572266 18.72376953 10.11572266 18.72376953 9.27734375 17.23046875 C8.85582031 16.49441406 8.43429688 15.75835937 8 15 C7.67 17.31 7.34 19.62 7 22 C6.67 22 6.34 22 6 22 C5.85304687 20.7315625 5.85304687 20.7315625 5.703125 19.4375 C4.78198083 12.44950975 3.52224424 7.10522335 0 1 C0 0.67 0 0.34 0 0 Z " fill="#141414" transform="translate(207,91)"/>
<path d="M0 0 C1.29808594 0.00644531 2.59617188 0.01289062 3.93359375 0.01953125 C7.5625 0.1875 7.5625 0.1875 12.5625 1.1875 C12.5625 18.3475 12.5625 35.5075 12.5625 53.1875 C16.1925 53.1875 19.8225 53.1875 23.5625 53.1875 C23.5625 46.5875 23.5625 39.9875 23.5625 33.1875 C24.5525 33.6825 24.5525 33.6825 25.5625 34.1875 C25.2325 40.7875 24.9025 47.3875 24.5625 54.1875 C20.2725 54.1875 15.9825 54.1875 11.5625 54.1875 C11.2325 47.2575 10.9025 40.3275 10.5625 33.1875 C8.5825 34.5075 6.6025 35.8275 4.5625 37.1875 C0.87109375 37.6484375 0.87109375 37.6484375 -3 37.5625 C-4.28003906 37.54960938 -5.56007812 37.53671875 -6.87890625 37.5234375 C-10.18594403 37.21124733 -12.41933592 36.46462549 -15.4375 35.1875 C-16.4275 35.6825 -16.4275 35.6825 -17.4375 36.1875 C-17.4375 24.6375 -17.4375 13.0875 -17.4375 1.1875 C-17.1075 1.1875 -16.7775 1.1875 -16.4375 1.1875 C-16.1075 9.7675 -15.7775 18.3475 -15.4375 27.1875 C-14.7775 26.1975 -14.1175 25.2075 -13.4375 24.1875 C-12.550625 24.496875 -11.66375 24.80625 -10.75 25.125 C-7.97040845 26.0165671 -5.30613625 26.68127007 -2.4375 27.1875 C-2.4375 26.1975 -2.4375 25.2075 -2.4375 24.1875 C-3.12457031 23.87296875 -3.81164062 23.5584375 -4.51953125 23.234375 C-5.42058594 22.80640625 -6.32164062 22.3784375 -7.25 21.9375 C-8.14332031 21.51984375 -9.03664062 21.1021875 -9.95703125 20.671875 C-12.60926497 19.08471152 -13.89408724 17.84838369 -15.4375 15.1875 C-15.95784742 10.50437324 -16.14031479 8.3421243 -13.6875 4.3125 C-9.28443437 0.15404913 -6.03475902 -0.06579024 0 0 Z M10.5625 5.1875 C9.9025 7.1675 9.2425 9.1475 8.5625 11.1875 C7.86125 10.8575 7.16 10.5275 6.4375 10.1875 C3.30246884 9.09705438 0.85686818 9.03427357 -2.4375 9.1875 C-2.4375 10.1775 -2.4375 11.1675 -2.4375 12.1875 C-1.59445313 12.60902344 -0.75140625 13.03054687 0.1171875 13.46484375 C5.83984375 16.32617188 5.83984375 16.32617188 11.5625 19.1875 C11.5625 14.5675 11.5625 9.9475 11.5625 5.1875 C11.2325 5.1875 10.9025 5.1875 10.5625 5.1875 Z " fill="#252525" transform="translate(160.4375,89.8125)"/>
<path d="M0 0 C3 2.5625 3 2.5625 5 6 C5 9.52957697 4.89515652 11.83275943 2.71484375 14.67578125 C-0.03025788 16.79557499 -2.47142369 16.53624756 -5.83203125 16.41015625 C-8 16 -8 16 -10.625 13.9375 C-12.43278778 10.07540792 -12.18317743 8.06717242 -11 4 C-8.0399396 -0.4400906 -5.15103098 -0.90368965 0 0 Z " fill="#1F1F1F" transform="translate(261,111)"/>
<path d="M0 0 C2.5 2.0625 2.5 2.0625 4 5 C3.93977486 8.49305789 3.63658168 10.90366489 1.875 13.9375 C-1.18452459 15.6712306 -3.56817525 15.42145216 -7 15 C-9.4375 13.4375 -9.4375 13.4375 -11 11 C-11.56288002 7.05983987 -11.60396028 4.94217804 -9.4375 1.5625 C-6.03280512 -0.61999672 -3.96569988 -0.63734462 0 0 Z " fill="#202020" transform="translate(141,69)"/>
<path d="M0 0 C0.66 0.33 1.32 0.66 2 1 C0.7934375 2.11375 0.7934375 2.11375 -0.4375 3.25 C-2.76988591 5.75304829 -3.63534394 6.7180955 -4 10 C-4.66 8.35 -5.32 6.7 -6 5 C-4.02 3.35 -2.04 1.7 0 0 Z " fill="#646464" transform="translate(67,127)"/>
</svg>
